<?xml version="1.0" standalone="no"?><!DOCTYPE svg PUBLIC "-//W3C//DTD SVG 1.1//EN" "http://www.w3.org/Graphics/SVG/1.1/DTD/svg11.dtd"><svg t="1773137473652" class="icon" viewBox="0 0 1024 1024" version="1.1" xmlns="http://www.w3.org/2000/svg" p-id="8906" xmlns:xlink="http://www.w3.org/1999/xlink" width="200" height="200"><path d="M48.761905 435.809524v9.508571l0.731428 248.198095-0.365714 49.371429 0.365714 21.162667 0.365715 7.411809 0.731428 4.924953v0.707047c0 0.341333 0 0.707048 0.341334 1.048381 1.462857 5.997714 5.095619 10.947048 10.532571 15.872 4.705524 4.242286 10.50819 7.753143 19.577905 12.678095 43.154286 22.918095 84.528762 39.862857 126.976 51.492572 43.544381 11.995429 88.892952 18.334476 137.508571 19.382857 50.41981 1.072762 97.206857-3.876571 142.921143-15.506286 43.885714-10.922667 87.430095-27.501714 133.485714-50.761143 34.133333-17.286095 71.484952-44.422095 105.569524-76.507428l11.971048-11.654095 11.629714-11.971048 4.705524-5.290667-2.535619 1.414096-9.801143 4.924952-3.632762 1.779809c-38.448762 17.261714-78.360381 22.186667-122.977524 16.920381l-13.409524-1.779809-13.409523-2.438095-3.291429-0.731429-3.267048-0.707048-14.140952-3.169523-3.632762-1.048381-3.974095-1.072762-16.335238-4.583619-2.925715-0.707048c-1.77981-0.682667-3.974095-1.048381-5.778285-1.755428l-29.744762-9.167239-14.506667-4.583619-42.447238-14.799238-21.040762-7.753143-19.236571-6.339047-9.435429-3.900953-10.142476-4.583619-1.097143-0.341333c-1.097143-0.365714-1.80419-1.072762-2.925714-1.755428l-13.775238-6.704762-35.913143-16.579048-22.479238-10.922667-7.972572-4.242285c-40.277333-20.431238-79.823238-45.104762-119.369142-72.972191a1362.651429 1362.651429 0 0 1-113.542096-90.940952l-18.870857-17.310476L48.761905 435.833905z" p-id="8907" fill="#2c2c2c"></path><path d="M851.456 390.095238l-14.750476 0.390095-5.680762 0.390096a320.853333 320.853333 0 0 0-66.243048 10.800761c-19.69981 5.412571-39.009524 12.726857-57.539047 22.381715-18.944 9.654857-36.717714 20.845714-53.394286 33.962666l-9.45981 7.338667-2.267428 1.950476-2.267429 1.901715-9.069714 8.118857-9.48419 8.874666-10.581334 10.044953-49.980952 49.395809-3.413334 3.096381c-24.210286 23.161905-42.008381 38.595048-62.829714 53.248l-8.313905 5.802667-21.577142 14.287238-3.023239 1.926095c-4.169143 2.681905-7.94819 5.022476-11.751619 7.314286l-10.971428 6.192762 15.896381 6.558476 46.567619 17.749333 28.769524 10.435048 32.548571 10.800762 18.529524 5.778286 16.286476 4.632381 3.803429 1.170285c3.779048 1.145905 7.558095 1.926095 10.971428 2.681905l13.994667 3.096381 3.413333 0.78019 3.413334 0.780191 13.238857 2.31619 3.413333 0.365715 3.413333 0.390095c43.885714 5.412571 82.895238 0 120.368762-18.529524 48.079238-23.527619 70.777905-47.85981 102.204953-106.910476l10.215619-19.675429 16.286476-32.426666 7.192381-13.897143 2.267428-4.242286c21.942857-42.471619 38.595048-68.315429 61.318096-92.257524l2.267428-2.31619-5.290666-1.926095-6.436572-2.316191-13.653333-4.632381-11.702857-3.462095-5.315048-1.560381a319.195429 319.195429 0 0 0-66.243048-9.654857l-15.11619-1.145905zM219.428571 170.666667l12.434286 9.947428 17.871238 14.360381 7.314286 5.973334a1493.162667 1493.162667 0 0 1 59.14819 51.785142 1033.581714 1033.581714 0 0 1 77.04381 81.261715 1258.032762 1258.032762 0 0 1 60.269714 75.312762 1085.68381 1085.68381 0 0 1 40.911238 58.953142l15.335619 24.697905L534.601143 536.380952l15.701333-15.945142 23.722667-24.697905 13.507047-13.945905 17.89562-17.92 4.022857-3.974095c11.312762-11.166476 23.381333-21.528381 35.425523-31.47581 9.849905-7.972571 21.552762-15.945143 34.694096-23.503238 9.142857-5.193143 18.261333-9.97181 27.745524-14.336l15.701333-6.777905 8.411428-3.169523-0.365714-1.219048-0.365714-1.999238a224.792381 224.792381 0 0 0-9.849905-31.451429l-6.217143-16.749714-1.462857-3.584c-9.849905-24.697905-21.552762-50.200381-30.305524-66.121143l-17.895619-29.891047-9.874285-15.530667-1.804191-2.389333c-13.165714-19.919238-23.747048-32.280381-32.52419-36.644572-5.851429-3.193905-11.312762-3.998476-20.431239-4.388571H219.428571z" p-id="8908" fill="#2c2c2c"></path></svg>