<?xml version="1.0" standalone="no"?><!DOCTYPE svg PUBLIC "-//W3C//DTD SVG 1.1//EN" "http://www.w3.org/Graphics/SVG/1.1/DTD/svg11.dtd"><svg t="1773137421261" class="icon" viewBox="0 0 1024 1024" version="1.1" xmlns="http://www.w3.org/2000/svg" p-id="7825" xmlns:xlink="http://www.w3.org/1999/xlink" width="200" height="200"><path d="M159.744 461.141333 157.866667 455.253333 156.330667 447.616 155.264 443.477333 155.264 438.229333 155.264 431.914667 155.264 426.24 157.098667 419.498667 159.018667 412.288 161.408 404.821333 164.693333 396.458667 169.045333 387.797333 175.189333 379.093333 175.189333 372.949333 175.829333 367.274667 176.725333 359.509333 179.370667 350.848 181.802667 341.376 183.722667 337.024 185.941333 333.013333 188.8 328.533333 191.914667 325.205333 191.914667 319.104 191.914667 312.149333 191.914667 303.658667 193.749333 292.522667 195.541333 279.722667 198.784 264.277333 203.306667 248.277333 206.592 239.402667 209.92 229.888 213.504 220.885333 217.813333 211.328 222.208 200.832 227.285333 190.976 232.96 180.437333 240.128 169.941333 243.456 164.053333 246.997333 159.104 254.72 148.010667 262.570667 136.917333 271.573333 125.525333 281.173333 114.474667 291.626667 103.552 302.549333 92.288 315.733333 80.170667 324.096 72.874667 334.293333 64.896 344.661333 57.856 355.84 51.157333 366.592 45.184 378.709333 40.234667 391.552 34.090667 404.394667 29.909333 417.152 25.6 430.933333 21.248 444.714667 17.92 459.264 15.189333 473.941333 12.885333 488.405333 10.922667 502.954667 8.96 518.4 8.021333 533.12 8.021333 548.309333 8.021333 564.096 8.021333 579.242667 9.984 594.602667 11.818667 610.176 13.44 624.597333 16.896 639.914667 20.181333 654.250667 23.936 669.994667 28.074667 684.330667 33.194667 698.154667 39.04 712.832 45.184 726.229333 51.925333 739.242667 59.392 752 67.626667 763.093333 75.264 768.170667 79.573333 773.589333 82.730667 783.744 91.434667 792.405333 99.797333 800.981333 108.501333 809.344 118.101333 816.256 127.317333 824.405333 136.917333 830.165333 147.242667 836.010667 156.373333 842.154667 166.997333 847.232 176.298667 855.936 195.925333 860.074667 206.08 863.402667 215.509333 866.688 225.664 869.674667 235.264 871.765333 243.498667 874.325333 253.226667 879.104 270.592 882.090667 285.696 884.096 300.373333 885.674667 312.149333 888.32 330.112 888.917333 333.013333 891.093333 336.298667 896.768 345.6 900.352 351.829333 903.68 358.442667 907.818667 365.44 911.402667 373.888 913.749333 382.549333 916.352 391.978667 918.314667 401.706667 919.253333 406.442667 920.021333 412.288 920.021333 417.408 919.253333 422.485333 919.253333 428.8 917.76 434.901333 914.986667 446.762667 911.829333 452.693333 909.653333 459.477333 909.653333 461.141333 910.677333 463.189333 913.749333 468.181333 927.232 488.021333 937.898667 502.997333 943.018667 513.024 949.845333 523.989333 955.818667 535.978667 962.730667 548.821333 969.685333 563.2 977.408 579.541333 981.76 589.568 985.770667 599.253333 989.269333 609.621333 992.682667 618.837333 995.242667 628.608 997.930667 637.696 1001.258667 655.530667 1003.904 673.792 1005.653333 689.962667 1005.653333 698.794667 1005.653333 706.005333 1005.653333 712.704 1004.501333 720.853333 1002.752 734.72 1000.32 747.306667 996.565333 758.656 995.242667 763.349333 992.682667 768.853333 990.506667 772.693333 987.562667 777.6 985.002667 780.501333 981.76 784.426667 978.901333 787.541333 975.744 790.272 972.074667 791.893333 968.746667 793.514667 966.016 794.410667 963.584 794.410667 961.834667 794.410667 959.146667 793.514667 954.069333 790.997333 951.68 789.376 949.333333 787.541333 946.602667 785.152 943.914667 782.464 939.434667 777.6 934.101333 770.517333 929.92 763.349333 925.824 757.504 921.770667 750.762667 916.010667 738.730667 909.653333 726.272 908.842667 725.930667 907.818667 725.930667 905.173333 727.893333 903.68 731.136 901.077333 735.146667 896.768 747.306667 890.069333 764.544 881.664 785.152 875.349333 795.52 868.565333 806.229333 860.672 818.389333 852.352 830.250667 848 835.584 842.752 841.472 830.762667 853.248 831.829333 854.314667 833.408 855.978667 839.424 859.562667 864.426667 871.509333 875.349333 877.610667 885.674667 883.626667 896 891.136 905.173333 898.901333 909.653333 902.357333 912.896 906.368 916.352 911.018667 919.253333 916.138667 920.746667 920.32 922.666667 925.397333 923.434667 929.706667 924.245333 934.826667 923.434667 938.282667 923.434667 941.696 922.666667 945.322667 920.746667 948.565333 920.021333 951.168 918.314667 954.24 913.749333 960.426667 909.653333 965.333333 906.325333 969.088 903.68 971.818667 896.768 976.896 888.917333 981.205333 880.597333 985.472 871.765333 989.44 861.738667 993.322667 856.490667 994.944 851.669333 996.394667 840.149333 999.04 828.245333 1001.6 816.256 1004.16 803.242667 1006.250667 789.76 1006.805333 775.936 1008.512 762.325333 1008.512 747.904 1008.512 733.269333 1008.512 717.738667 1007.530667 703.317333 1006.250667 687.914667 1004.16 672.597333 1002.496 656.341333 1000.192 640.682667 996.394667 625.408 993.322667 610.176 988.970667 594.602667 983.466667 579.242667 978.816 571.264 976.128 564.096 973.525333 559.530667 971.818667 555.008 970.922667 549.205333 970.922667 542.293333 970.922667 527.616 969.856 520.192 969.088 510.592 968.021333 504.490667 973.525333 496.042667 978.816 484.693333 984.405333 472.149333 991.232 464.469333 994.944 456.533333 998.016 438.912 1005.184 429.312 1007.530667 419.285333 1010.304 405.333333 1012.906667 396.672 1013.717333 387.413333 1014.485333 377.770667 1015.509333 366.592 1015.978667 355.84 1015.978667 344.661333 1015.978667 320.853333 1015.978667 294.997333 1015.509333 269.909333 1012.906667 257.194667 1011.2 244.949333 1009.365333 232.96 1007.530667 221.013333 1005.184 209.92 1001.6 198.784 999.04 188.8 994.944 179.370667 991.232 170.581333 987.008 162.944 982.442667 155.264 976.896 152.704 974.165333 149.290667 970.922667 146.688 968.021333 144.341333 964.778667 142.250667 961.408 140.586667 958.165333 138.197333 951.168 137.344 947.541333 136.277333 943.488 136.277333 939.776 137.344 935.594667 137.344 931.370667 138.197333 927.189333 138.197333 924.672 138.197333 918.826667 138.624 914.304 140.586667 909.226667 142.250667 904.106667 145.28 897.962667 147.498667 895.616 149.290667 892.928 154.069333 887.082667 157.866667 884.138667 161.408 882.005333 164.693333 879.274667 169.941333 877.610667 174.122667 875.136 179.370667 872.362667 185.344 870.613333 191.317333 868.778667 198.229333 867.328 204.8 866.389333 212.565333 865.365333 221.013333 864.768 223.232 864 223.701333 864 224.768 863.104 224.768 862.122667 223.232 859.989333 218.709333 857.856 207.530667 848.170667 200.021333 842.197333 191.317333 834.602667 182.528 826.026667 173.354667 815.104 162.944 802.816 159.018667 796.202667 153.770667 789.376 149.290667 781.397333 145.28 772.693333 139.818667 764.544 136.277333 755.029333 132.096 745.728 127.872 735.146667 124.757333 725.162667 121.856 712.704 120.96 712.32 120.106667 712.32 119.637333 711.381333 118.613333 711.381333 116.821333 712.32 115.882667 712.704 114.688 714.837333 114.218667 717.354667 113.322667 719.616 111.744 723.328 106.624 732.501333 103.936 738.048 99.754667 742.784 95.232 748.629333 90.325333 755.029333 85.077333 760.789333 78.976 766.293333 73.216 771.541333 66.986667 775.594667 60.117333 779.904 53.504 782.464 45.696 784.426667 38.101333 785.152 37.333333 785.152 36.266667 785.152 34.56 784.426667 33.152 781.397333 30.890667 779.904 27.946667 772.693333 26.112 768.853333 24.149333 763.349333 22.528 757.504 21.632 751.786667 19.2 738.730667 18.304 731.136 18.304 723.328 18.304 706.005333 19.2 687.274667 20.736 677.674667 22.528 667.818667 24.149333 657.194667 27.008 647.338667 30.293333 635.904 33.621333 624.896 38.101333 613.461333 42.282667 602.581333 48.042667 591.488 53.504 579.541333 60.117333 568.277333 67.882667 556.117333 75.776 545.194667 84.053333 533.12 90.922667 524.714667 99.754667 514.986667 109.013333 505.301333 113.322667 500.650667 118.613333 495.402667 126.208 488.789333 134.016 482.048 146.688 470.698667 156.330667 463.658667Z" fill="#2c2c2c" p-id="7826"></path></svg>